<?xml version="1.0" encoding="UTF-8"?>
<svg version="1.1" xmlns="http://www.w3.org/2000/svg" width="601" height="251">
<path d="M0 0 C2 2 2 2 2.265625 4.35546875 C2.23466804 9.96641689 1.88360072 14.70237298 0 20 C-0.66 20 -1.32 20 -2 20 C-1.938125 20.86625 -1.87625 21.7325 -1.8125 22.625 C-2.0675123 27.21522134 -3.64757005 30.30946256 -6.5 33.875 C-8 35 -8 35 -11 35 C-11 34.34 -11 33.68 -11 33 C-13.97 33 -16.94 33 -20 33 C-20 33.66 -20 34.32 -20 35 C-20.9075 35.391875 -21.815 35.78375 -22.75 36.1875 C-26.73155182 38.40798082 -28.96930008 40.93860016 -31 45 C-30.01 45.33 -29.02 45.66 -28 46 C-19.08421937 60.5624417 -15.57795745 79.94865071 -18.68359375 96.68359375 C-20.7841032 104.08331376 -23.89935909 111.28496981 -29.703125 116.54296875 C-30.13109375 117.02378906 -30.5590625 117.50460938 -31 118 C-30.76716851 121.14921909 -30.76716851 121.14921909 -30 124 C-34.79574514 127.6524395 -39.05687438 129.09112709 -44.9375 130.25 C-46.17753784 130.50475098 -46.17753784 130.50475098 -47.44262695 130.76464844 C-55.02639778 132.21278372 -62.29972931 132.41436434 -70 132 C-70.73468197 119.71448483 -68.68537488 107.53453011 -62 97 C-59.375 95.4375 -59.375 95.4375 -57 95 C-56.34 95.33 -55.68 95.66 -55 96 C-48.74428061 96.29850943 -44.53751538 94.64649105 -39.78125 90.6640625 C-33.5041205 84.79990205 -29.16331276 78.67025386 -28.68359375 69.95703125 C-28.49367073 62.40361721 -28.87866112 55.29210239 -31 48 C-31.66 48 -32.32 48 -33 48 C-33.24911914 56.58077055 -32.69882188 64.58173087 -31 73 C-31.99 73 -32.98 73 -34 73 C-36.10783281 69.83825079 -36.717194 67.54831926 -37.5625 63.875 C-38.16664395 60.12980201 -38.16664395 60.12980201 -40 57 C-40.94319178 51.13125112 -41.13035832 45.30746195 -41.1875 39.375 C-41.20047119 38.65892578 -41.21344238 37.94285156 -41.22680664 37.20507812 C-41.23497713 32.47708713 -40.4886672 28.53392558 -39 24 C-38.65864073 22.66869885 -38.32074044 21.33641852 -38 20 C-37.34 20 -36.68 20 -36 20 C-35.67 18.68 -35.34 17.36 -35 16 C-34.34 16 -33.68 16 -33 16 C-33.53625 15.278125 -34.0725 14.55625 -34.625 13.8125 C-36 11 -36 11 -35.75 8.375 C-32.98251931 4.61913335 -29.37874569 4.16023651 -25 3 C-24.15953125 2.72027344 -23.3190625 2.44054688 -22.453125 2.15234375 C-15.06924754 -0.19607882 -7.72106934 -0.80887393 0 0 Z " fill="#EC5F2B" transform="translate(84,59)"/>
<path d="M0 0 C1.33417969 -0.01160156 1.33417969 -0.01160156 2.6953125 -0.0234375 C7.22607409 -0.00991284 10.89263356 0.09363262 15 2.25 C15 2.91 15 3.57 15 4.25 C15.66 4.25 16.32 4.25 17 4.25 C20.74675152 11.89961768 20.2241368 18.88222606 20 27.25 C15.05 27.25 10.1 27.25 5 27.25 C4.67 23.29 4.34 19.33 4 15.25 C1.03 14.92 -1.94 14.59 -5 14.25 C-5.04811791 17.65133497 -5.04029529 21.03702522 -5 24.4375 C-5.01933594 25.39720703 -5.03867188 26.35691406 -5.05859375 27.34570312 C-5.04167892 32.69290536 -5.04167892 32.69290536 -2.2578125 37.00634766 C0.73991079 38.91355302 3.63245409 40.1274847 7 41.25 C7 41.91 7 42.57 7 43.25 C7.53625 43.3325 8.0725 43.415 8.625 43.5 C12.79927742 44.81819287 16.03905065 46.96162443 18.66088867 50.47680664 C20.27680787 53.82324715 20.37288609 56.16388496 20.36328125 59.87109375 C20.36263672 61.13630859 20.36199219 62.40152344 20.36132812 63.70507812 C20.34521484 65.01927734 20.32910156 66.33347656 20.3125 67.6875 C20.31572266 68.99783203 20.31894531 70.30816406 20.32226562 71.65820312 C20.27408104 80.26572306 20.04232842 86.64120329 14 93.25 C9.90934806 95.29532597 4.68360174 94.5231755 0.1875 94.5625 C-1.4531543 94.60600586 -1.4531543 94.60600586 -3.12695312 94.65039062 C-11.17720908 94.71416474 -11.17720908 94.71416474 -15.13671875 92.48046875 C-18.98886892 87.86919465 -19.27089738 84.43690118 -19.125 78.5 C-19.11597656 77.80261719 -19.10695312 77.10523438 -19.09765625 76.38671875 C-19.07419888 74.67433042 -19.03833104 72.96211996 -19 71.25 C-14.38 71.25 -9.76 71.25 -5 71.25 C-4.67 73.89 -4.34 76.53 -4 79.25 C-1.36 79.25 1.28 79.25 4 79.25 C5.62035726 67.48208296 5.62035726 67.48208296 2.16015625 56.83203125 C-0.49743031 55.33320281 -3.13815291 54.30376621 -6 53.25 C-8.02821034 52.06796214 -10.02930173 50.83811711 -12 49.5625 C-12.9075 49.00175781 -13.815 48.44101563 -14.75 47.86328125 C-17 46.25 -17 46.25 -19 43.25 C-19.19569099 40.61094081 -19.28010898 38.08010338 -19.265625 35.44140625 C-19.26753845 34.67827621 -19.2694519 33.91514618 -19.27142334 33.12889099 C-19.27278348 31.51585561 -19.26909894 29.90280923 -19.26074219 28.28979492 C-19.25005467 25.82510667 -19.26063532 23.36114973 -19.2734375 20.89648438 C-19.27211559 19.3281234 -19.26955253 17.75976287 -19.265625 16.19140625 C-19.26967346 15.45588028 -19.27372192 14.72035431 -19.27789307 13.96253967 C-19.24388152 10.23602111 -19.06969942 7.41466701 -17 4.25 C-16.34 4.25 -15.68 4.25 -15 4.25 C-15 3.59 -15 2.93 -15 2.25 C-10.12288501 -0.31048537 -5.36359799 -0.04663998 0 0 Z " fill="#565659" transform="translate(241,88.75)"/>
<path d="M0 0 C0.8765625 -0.01998047 1.753125 -0.03996094 2.65625 -0.06054688 C8.26717377 -0.05632178 11.58332177 0.65177581 16 4.4375 C19.74091664 9.72638215 20.15833869 14.23926102 20.125 20.5625 C20.13080078 21.67431641 20.13080078 21.67431641 20.13671875 22.80859375 C20.1266598 28.3108402 20.1266598 28.3108402 19 29.4375 C14.33154772 29.58176614 9.67134047 29.47958415 5 29.4375 C4.67 24.4875 4.34 19.5375 4 14.4375 C1.36 14.7675 -1.28 15.0975 -4 15.4375 C-4 36.5575 -4 57.6775 -4 79.4375 C-1.36 79.4375 1.28 79.4375 4 79.4375 C4.33 76.7975 4.66 74.1575 5 71.4375 C9.95 71.4375 14.9 71.4375 20 71.4375 C20.31734336 80.00577075 20.11365972 84.99221222 15.13671875 92.09765625 C10.34272355 95.6737498 5.82069523 95.12849984 0 95 C-1.08023438 95.01095703 -2.16046875 95.02191406 -3.2734375 95.03320312 C-7.75195992 94.99173532 -11.05554739 94.9302055 -15.0625 92.83984375 C-19.27513883 87.61651133 -20.37524822 82.76790918 -20.40405273 76.16040039 C-20.41091599 75.46997147 -20.41777924 74.77954254 -20.42485046 74.06819153 C-20.44301267 71.80696502 -20.43929646 69.54643938 -20.43359375 67.28515625 C-20.43816068 65.70006589 -20.44346777 64.11497751 -20.44947815 62.52989197 C-20.45838848 59.2155653 -20.45601002 55.90147987 -20.44604492 52.5871582 C-20.43455811 48.35604684 -20.45477224 44.12577045 -20.48396206 39.89476871 C-20.50237614 36.62347696 -20.5020213 33.3523834 -20.49632454 30.08105278 C-20.49617196 28.5218533 -20.5021637 26.96263983 -20.51461601 25.40349007 C-20.61920509 10.16249584 -20.61920509 10.16249584 -16 3.4375 C-11.08745288 -0.25422068 -5.90836503 -0.04778825 0 0 Z " fill="#57575A" transform="translate(188,88.5625)"/>
<path d="M0 0 C4.95 0 9.9 0 15 0 C15.33 26.4 15.66 52.8 16 80 C20.62 80 25.24 80 30 80 C30.66 80.33 31.32 80.66 32 81 C32 85.29 32 89.58 32 94 C21.44 94 10.88 94 0 94 C0 62.98 0 31.96 0 0 Z " fill="#57575A" transform="translate(124,89)"/>
<path d="M0 0 C2 2 2 2 2.265625 4.35546875 C2.23466804 9.96641689 1.88360072 14.70237298 0 20 C-0.66 20 -1.32 20 -2 20 C-1.938125 20.86625 -1.87625 21.7325 -1.8125 22.625 C-2.0675123 27.21522134 -3.64757005 30.30946256 -6.5 33.875 C-8 35 -8 35 -11 35 C-11 34.34 -11 33.68 -11 33 C-13.97 33 -16.94 33 -20 33 C-20 33.66 -20 34.32 -20 35 C-20.9075 35.391875 -21.815 35.78375 -22.75 36.1875 C-28.45726659 39.37039868 -30.63356533 43.5468533 -32.46484375 49.62109375 C-34.22839454 57.46052757 -32.47186218 65.23329868 -31 73 C-31.99 73 -32.98 73 -34 73 C-36.10783281 69.83825079 -36.717194 67.54831926 -37.5625 63.875 C-38.16664395 60.12980201 -38.16664395 60.12980201 -40 57 C-40.94319178 51.13125112 -41.13035832 45.30746195 -41.1875 39.375 C-41.20695679 38.30088867 -41.20695679 38.30088867 -41.22680664 37.20507812 C-41.23497713 32.47708713 -40.4886672 28.53392558 -39 24 C-38.65864073 22.66869885 -38.32074044 21.33641852 -38 20 C-37.34 20 -36.68 20 -36 20 C-35.67 18.68 -35.34 17.36 -35 16 C-34.34 16 -33.68 16 -33 16 C-33.804375 14.9171875 -33.804375 14.9171875 -34.625 13.8125 C-36 11 -36 11 -35.75 8.375 C-32.98251931 4.61913335 -29.37874569 4.16023651 -25 3 C-24.15953125 2.72027344 -23.3190625 2.44054688 -22.453125 2.15234375 C-15.06924754 -0.19607882 -7.72106934 -0.80887393 0 0 Z " fill="#2672B5" transform="translate(84,59)"/>
<path d="M0 0 C4.95 0 9.9 0 15 0 C15 31.35 15 62.7 15 95 C10.05 94.67 5.1 94.34 0 94 C0 62.98 0 31.96 0 0 Z " fill="#58585B" transform="translate(93,89)"/>
<path d="M0 0 C0.53625 0.33 1.0725 0.66 1.625 1 C1.625 1.66 1.625 2.32 1.625 3 C2.285 3 2.945 3 3.625 3 C4.285 4.32 4.945 5.64 5.625 7 C6.2025 6.05125 6.78 5.1025 7.375 4.125 C10.425 -0.11111111 10.425 -0.11111111 13.625 -1 C20.59722222 -1.51388889 20.59722222 -1.51388889 23.625 0 C23.625 1.65 23.625 3.3 23.625 5 C23.01011719 4.94199219 22.39523437 4.88398437 21.76171875 4.82421875 C19.30665151 4.68717353 17.06184876 4.65987447 14.625 5 C12.21857418 6.9828246 12.21857418 6.9828246 11.625 10 C12.0210397 13.27242264 12.0210397 13.27242264 13.625 16 C15.65743548 16.96877057 15.65743548 16.96877057 17.625 17 C18.12 15.515 18.12 15.515 18.625 14 C17.635 13.67 16.645 13.34 15.625 13 C15.625 11.68 15.625 10.36 15.625 9 C18.595 9 21.565 9 24.625 9 C24.625 12.96 24.625 16.92 24.625 21 C19.41311246 23.08475502 16.86902086 23.47554433 11.625 22 C8.14554814 19.80643252 6.13364475 17.84018663 4.625 14 C4.315625 15.3921875 4.315625 15.3921875 4 16.8125 C2.625 20 2.625 20 -0.0625 21.9375 C-4.05564181 23.21831907 -6.34466241 23.11953822 -10.375 22 C-13.31627984 19.60053487 -15.19124259 17.67490357 -15.61328125 13.828125 C-15.78020059 8.02987428 -15.42734178 4.51546655 -11.375 0 C-7.34577453 -1.34307516 -3.97171095 -1.67229935 0 0 Z M-9.375 5 C-9.375 6.32 -9.375 7.64 -9.375 9 C-10.035 9 -10.695 9 -11.375 9 C-11.375 10.32 -11.375 11.64 -11.375 13 C-10.715 13 -10.055 13 -9.375 13 C-9.375 13.99 -9.375 14.98 -9.375 16 C-6.9 16.99 -6.9 16.99 -4.375 18 C-1.58147362 15.73025981 -0.46616436 14.62512706 0.0625 11 C-0.41797317 7.70532686 -0.94174929 6.25944709 -3.375 4 C-7.1513932 3.7018576 -7.1513932 3.7018576 -9.375 5 Z " fill="#5D5D5E" transform="translate(475.375,108)"/>
<path d="M0 0 C2.41796875 0.12109375 2.41796875 0.12109375 5 1 C6.36328125 3.28515625 6.36328125 3.28515625 7.3125 6.0625 C7.63863281 6.98160156 7.96476562 7.90070313 8.30078125 8.84765625 C8.53152344 9.55792969 8.76226562 10.26820313 9 11 C9.27714844 10.28972656 9.55429687 9.57945312 9.83984375 8.84765625 C10.20207031 7.92855469 10.56429688 7.00945312 10.9375 6.0625 C11.47697266 4.68771484 11.47697266 4.68771484 12.02734375 3.28515625 C13 1 13 1 14 0 C15.66617115 -0.04063832 17.33388095 -0.042721 19 0 C20.17469444 2.34938888 20.20034889 3.95073205 20.31640625 6.5703125 C20.35830078 7.46621094 20.40019531 8.36210937 20.44335938 9.28515625 C20.48267578 10.22230469 20.52199219 11.15945312 20.5625 12.125 C20.60568359 13.06988281 20.64886719 14.01476562 20.69335938 14.98828125 C20.79959072 17.32537092 20.90163176 19.6625683 21 22 C19.34385343 22.38218767 17.67542976 22.71395102 16 23 C14.03177114 21.03177114 14.33751619 17.65191291 14 15 C13.01 17.64 12.02 20.28 11 23 C9.68 23 8.36 23 7 23 C6.01 20.36 5.02 17.72 4 15 C3.67 17.64 3.34 20.28 3 23 C1.35 23 -0.3 23 -2 23 C-2.02726927 20.64575325 -2.04696719 18.29183038 -2.0625 15.9375 C-2.07990234 13.97103516 -2.07990234 13.97103516 -2.09765625 11.96484375 C-1.84848485 1.84848485 -1.84848485 1.84848485 0 0 Z " fill="#5F5F61" transform="translate(330,142)"/>
<path d="M0 0 C1.2065625 0.0309375 1.2065625 0.0309375 2.4375 0.0625 C3.7575 3.0325 5.0775 6.0025 6.4375 9.0625 C8.64447293 7.10312086 8.64447293 7.10312086 9.75 4 C11.4375 1.0625 11.4375 1.0625 14.0625 0.125 C14.84625 0.104375 15.63 0.08375 16.4375 0.0625 C18.08829442 1.71329442 17.66299447 3.69986179 17.75390625 5.97265625 C17.79580078 6.96201172 17.83769531 7.95136719 17.88085938 8.97070312 C17.92017578 10.01162109 17.95949219 11.05253906 18 12.125 C18.04318359 13.16978516 18.08636719 14.21457031 18.13085938 15.29101562 C18.23731225 17.88136884 18.3393276 20.47182186 18.4375 23.0625 C16.7875 23.0625 15.1375 23.0625 13.4375 23.0625 C12.7775 20.7525 12.1175 18.4425 11.4375 16.0625 C10.4475 18.3725 9.4575 20.6825 8.4375 23.0625 C6.5625 22.875 6.5625 22.875 4.4375 22.0625 C3.1875 19.5 3.1875 19.5 2.4375 17.0625 C1.7775 19.0425 1.1175 21.0225 0.4375 23.0625 C-1.2125 22.7325 -2.8625 22.4025 -4.5625 22.0625 C-4.42431468 18.58298477 -4.27567399 15.10399505 -4.125 11.625 C-4.08568359 10.63177734 -4.04636719 9.63855469 -4.00585938 8.61523438 C-3.96396484 7.67099609 -3.92207031 6.72675781 -3.87890625 5.75390625 C-3.84224854 4.87935791 -3.80559082 4.00480957 -3.76782227 3.10375977 C-3.45901518 0.03368122 -3.1211365 0.07612528 0 0 Z " fill="#616163" transform="translate(357.5625,141.9375)"/>
<path d="M0 0 C5.34151842 1.94237033 5.34151842 1.94237033 7.140625 4.83203125 C8.96398427 9.4318694 8.6312919 14.2917984 6.9375 18.875 C3.34952687 22.81019633 -0.61085566 23.88613571 -5.8125 24.3125 C-9 24 -9 24 -11 22 C-11.22705078 19.84521484 -11.22705078 19.84521484 -11.1953125 17.2109375 C-11.18886719 16.26992187 -11.18242187 15.32890625 -11.17578125 14.359375 C-11.15902344 13.37453125 -11.14226562 12.3896875 -11.125 11.375 C-11.11597656 10.38242188 -11.10695313 9.38984375 -11.09765625 8.3671875 C-11.07404116 5.91121866 -11.04110799 3.45572832 -11 1 C-7.54371521 -0.72814239 -3.78603795 -0.35633298 0 0 Z M-5 5 C-5 9.62 -5 14.24 -5 19 C0.68900781 17.69516435 0.68900781 17.69516435 2.4375 15.25 C3.20579915 12.17680339 2.85710995 10.03285059 2 7 C-0.95377498 4.63019987 -0.95377498 4.63019987 -5 5 Z " fill="#5F5F60" transform="translate(328,107)"/>
<path d="M0 0 C5 1 5 1 6.80078125 3.06640625 C7.29964844 3.89011719 7.79851562 4.71382812 8.3125 5.5625 C8.82425781 6.38878906 9.33601563 7.21507812 9.86328125 8.06640625 C10.23839844 8.70449219 10.61351562 9.34257812 11 10 C11.33 7.03 11.66 4.06 12 1 C13.65 0.67 15.3 0.34 17 0 C17 7.59 17 15.18 17 23 C15.35 23 13.7 23 12 23 C10.19921875 20.8125 10.19921875 20.8125 8.6875 18 C7.91986328 16.6078125 7.91986328 16.6078125 7.13671875 15.1875 C6.76160156 14.465625 6.38648438 13.74375 6 13 C5.67 15.97 5.34 18.94 5 22 C3.35 22.33 1.7 22.66 0 23 C0 15.41 0 7.82 0 0 Z " fill="#636365" transform="translate(400,142)"/>
<path d="M0 0 C5 1 5 1 6.80078125 3.06640625 C7.29964844 3.89011719 7.79851562 4.71382813 8.3125 5.5625 C8.82425781 6.38878906 9.33601563 7.21507813 9.86328125 8.06640625 C10.23839844 8.70449219 10.61351562 9.34257813 11 10 C11.33 7.03 11.66 4.06 12 1 C13.32 0.67 14.64 0.34 16 0 C17 1 17 1 17.11352539 3.13305664 C17.10828857 4.04949951 17.10305176 4.96594238 17.09765625 5.91015625 C17.09443359 6.89951172 17.09121094 7.88886719 17.08789062 8.90820312 C17.07951172 9.94912109 17.07113281 10.99003906 17.0625 12.0625 C17.05798828 13.10728516 17.05347656 14.15207031 17.04882812 15.22851562 C17.03699913 17.8190666 17.02051689 20.40950559 17 23 C15.68 23.33 14.36 23.66 13 24 C11.85252535 22.37615858 10.7070709 20.75088944 9.5625 19.125 C8.92441406 18.22007813 8.28632813 17.31515625 7.62890625 16.3828125 C6 14 6 14 5 12 C4.67 15.63 4.34 19.26 4 23 C2.68 23 1.36 23 0 23 C0 15.41 0 7.82 0 0 Z " fill="#626264" transform="translate(297,107)"/>
<path d="M0 0 C5 1 5 1 6.80078125 3.06640625 C7.29964844 3.89011719 7.79851562 4.71382813 8.3125 5.5625 C8.82425781 6.38878906 9.33601563 7.21507813 9.86328125 8.06640625 C10.23839844 8.70449219 10.61351562 9.34257813 11 10 C11.33 7.03 11.66 4.06 12 1 C13.32 0.67 14.64 0.34 16 0 C17.61686074 1.61686074 17.12989349 3.3907615 17.1328125 5.62109375 C17.13410156 6.55630859 17.13539063 7.49152344 17.13671875 8.45507812 C17.13285156 9.43927734 17.12898438 10.42347656 17.125 11.4375 C17.13080078 12.90799805 17.13080078 12.90799805 17.13671875 14.40820312 C17.13542969 15.34470703 17.13414062 16.28121094 17.1328125 17.24609375 C17.13168457 18.10904053 17.13055664 18.9719873 17.12939453 19.86108398 C17 22 17 22 16 24 C12.94918504 23.68276924 12.09333887 23.11098219 10.078125 20.71484375 C9.17320312 19.34005859 9.17320312 19.34005859 8.25 17.9375 C7.32960938 16.55884766 7.32960938 16.55884766 6.390625 15.15234375 C5.93171875 14.44207031 5.4728125 13.73179688 5 13 C4.67 16.3 4.34 19.6 4 23 C2.68 23 1.36 23 0 23 C0 15.41 0 7.82 0 0 Z " fill="#616163" transform="translate(360,107)"/>
<path d="M0 0 C3.04768739 1.55770689 4.51464464 2.85199052 5.85546875 6.0234375 C7.022854 10.16942389 7.11178455 12.59889074 5.9375 16.8125 C3.88831093 20.18374653 2.40689278 22.01924838 -1 24 C-4.56724837 24.52022372 -6.46916312 24.24128949 -9.75 22.75 C-12.17758304 20.86187986 -12.88159962 19.81597239 -14 17 C-14.265625 14.5625 -14.265625 14.5625 -14.25 12 C-14.25515625 11.154375 -14.2603125 10.30875 -14.265625 9.4375 C-13.98025415 6.81880281 -13.38832128 5.22518393 -12 3 C-8.07146516 -0.14282787 -4.95923657 -0.61990457 0 0 Z M-7.75 6.625 C-9.37236869 9.70750051 -9.50181765 11.55896468 -9 15 C-7.12498069 17.37719693 -7.12498069 17.37719693 -5 19 C-1.75016865 17.91215032 -1.75016865 17.91215032 1 16 C1.51803544 10.73408291 1.51803544 10.73408291 -0.25 6 C-3.17036492 4.33122005 -5.28491631 4.33599372 -7.75 6.625 Z " fill="#606062" transform="translate(351,107)"/>
<path d="M0 0 C0 0.66 0 1.32 0 2 C0.66 2 1.32 2 2 2 C3.40603618 4.81207235 3.24557505 7.24009466 3.3125 10.375 C3.34988281 11.51710937 3.38726562 12.65921875 3.42578125 13.8359375 C2.91713992 17.61574922 1.95489073 18.6865234 -1 21 C-4.14911479 22.57455739 -6.52008816 22.34799118 -10 22 C-13.47998516 19.99707521 -15.7068445 17.87946651 -17 14 C-17.36945059 9.01241703 -17.18227193 5.95040654 -14 2 C-9.5492713 -1.92711356 -5.45438185 -0.98630434 0 0 Z M-10 4 C-11.49084832 8.47254497 -11.49084832 12.52745503 -10 17 C-7.12635209 17.41746608 -7.12635209 17.41746608 -4 17 C-1.44045465 14.19275671 -0.97312791 12.67180221 -1.125 8.875 C-2.00847483 5.97215412 -2.52737836 4.71181498 -5 3 C-7.9254644 2.7763932 -7.9254644 2.7763932 -10 4 Z " fill="#646466" transform="translate(322,143)"/>
<path d="M0 0 C1.65 0.33 3.3 0.66 5 1 C7.31 7.93 9.62 14.86 12 22 C10.02 22.99 10.02 22.99 8 24 C5.7522025 21.94766315 4.9977758 20.99332739 4 18 C2.35 17.67 0.7 17.34 -1 17 C-1.185625 18.175625 -1.185625 18.175625 -1.375 19.375 C-2 22 -2 22 -4 24 C-4.99 24 -5.98 24 -7 24 C-8.16176826 20.51469522 -7.80424557 19.72581099 -6.6015625 16.3671875 C-6.28703125 15.47902344 -5.9725 14.59085938 -5.6484375 13.67578125 C-5.31070312 12.75152344 -4.97296875 11.82726562 -4.625 10.875 C-4.295 9.94300781 -3.965 9.01101562 -3.625 8.05078125 C-1.15619685 1.15619685 -1.15619685 1.15619685 0 0 Z M1 9 C2 12 2 12 2 12 Z " fill="#606062" transform="translate(426,107)"/>
<path d="M0 0 C1.98 0.495 1.98 0.495 4 1 C4.33 6.61 4.66 12.22 5 18 C6.65 17.67 8.3 17.34 10 17 C10.33 11.72 10.66 6.44 11 1 C12.65 0.67 14.3 0.34 16 0 C16.13539281 2.89740622 16.23426829 5.78845621 16.3125 8.6875 C16.35439453 9.50412109 16.39628906 10.32074219 16.43945312 11.16210938 C16.52872668 15.57222304 16.44267092 17.41453201 13.69921875 21.04296875 C11 23 11 23 7.5 23.625 C2.99829877 22.82112478 1.76735942 21.61163857 -1 18 C-1.61511977 15.05393812 -1.52146721 12.24500188 -1.375 9.25 C-1.36082031 8.47011719 -1.34664063 7.69023437 -1.33203125 6.88671875 C-1.18324498 1.18324498 -1.18324498 1.18324498 0 0 Z " fill="#656567" transform="translate(380,142)"/>
<path d="M0 0 C1.65322266 0.01740234 1.65322266 0.01740234 3.33984375 0.03515625 C4.99693359 0.04869141 4.99693359 0.04869141 6.6875 0.0625 C7.54214844 0.07410156 8.39679688 0.08570313 9.27734375 0.09765625 C9.83984375 2.03515625 9.83984375 2.03515625 10.27734375 4.09765625 C9.27734375 5.09765625 9.27734375 5.09765625 7.4296875 5.1953125 C5.37890625 5.16276042 3.328125 5.13020833 1.27734375 5.09765625 C1.27734375 6.41765625 1.27734375 7.73765625 1.27734375 9.09765625 C3.91734375 9.09765625 6.55734375 9.09765625 9.27734375 9.09765625 C8.94734375 10.74765625 8.61734375 12.39765625 8.27734375 14.09765625 C5.96734375 14.09765625 3.65734375 14.09765625 1.27734375 14.09765625 C1.27734375 15.41765625 1.27734375 16.73765625 1.27734375 18.09765625 C4.24734375 18.09765625 7.21734375 18.09765625 10.27734375 18.09765625 C10.27734375 19.74765625 10.27734375 21.39765625 10.27734375 23.09765625 C5.65734375 23.09765625 1.03734375 23.09765625 -3.72265625 23.09765625 C-3.74948612 19.45177456 -3.76941194 15.80608779 -3.78515625 12.16015625 C-3.79353516 11.11923828 -3.80191406 10.07832031 -3.81054688 9.00585938 C-3.81538086 7.52182617 -3.81538086 7.52182617 -3.8203125 6.0078125 C-3.82554932 5.09136963 -3.83078613 4.17492676 -3.83618164 3.23071289 C-3.66394667 -0.0054526 -3.27378605 0.11742418 0 0 Z " fill="#5E5E60" transform="translate(492.72265625,141.90234375)"/>
<path d="M0 0 C1.65322266 0.01740234 1.65322266 0.01740234 3.33984375 0.03515625 C4.99693359 0.04869141 4.99693359 0.04869141 6.6875 0.0625 C7.54214844 0.07410156 8.39679688 0.08570312 9.27734375 0.09765625 C9.27734375 1.74765625 9.27734375 3.39765625 9.27734375 5.09765625 C6.63734375 5.09765625 3.99734375 5.09765625 1.27734375 5.09765625 C1.27734375 6.41765625 1.27734375 7.73765625 1.27734375 9.09765625 C3.91734375 9.09765625 6.55734375 9.09765625 9.27734375 9.09765625 C9.27734375 10.41765625 9.27734375 11.73765625 9.27734375 13.09765625 C6.63734375 13.09765625 3.99734375 13.09765625 1.27734375 13.09765625 C1.27734375 14.74765625 1.27734375 16.39765625 1.27734375 18.09765625 C4.24734375 18.09765625 7.21734375 18.09765625 10.27734375 18.09765625 C10.27734375 19.74765625 10.27734375 21.39765625 10.27734375 23.09765625 C7.63275996 24.41994814 5.59973074 24.19442819 2.65234375 24.16015625 C1.64945312 24.15113281 0.6465625 24.14210937 -0.38671875 24.1328125 C-1.15757812 24.12121094 -1.9284375 24.10960937 -2.72265625 24.09765625 C-3.94123732 21.6604941 -3.851912 20.06491568 -3.85546875 17.34375 C-3.85675781 16.40724609 -3.85804688 15.47074219 -3.859375 14.50585938 C-3.85550781 13.52552734 -3.85164063 12.54519531 -3.84765625 11.53515625 C-3.85152344 10.55095703 -3.85539062 9.56675781 -3.859375 8.55273438 C-3.85808594 7.61751953 -3.85679687 6.68230469 -3.85546875 5.71875 C-3.85434082 4.85693115 -3.85321289 3.9951123 -3.85205078 3.10717773 C-3.6496397 -0.03630456 -3.18370211 0.11419305 0 0 Z " fill="#5C5C5D" transform="translate(383.72265625,106.90234375)"/>
<path d="M0 0 C1.65322266 0.01740234 1.65322266 0.01740234 3.33984375 0.03515625 C4.99693359 0.04869141 4.99693359 0.04869141 6.6875 0.0625 C7.54214844 0.07410156 8.39679687 0.08570313 9.27734375 0.09765625 C9.83984375 2.03515625 9.83984375 2.03515625 10.27734375 4.09765625 C9.27734375 5.09765625 9.27734375 5.09765625 7.4296875 5.1953125 C5.37890625 5.16276042 3.328125 5.13020833 1.27734375 5.09765625 C1.27734375 6.41765625 1.27734375 7.73765625 1.27734375 9.09765625 C3.58734375 9.09765625 5.89734375 9.09765625 8.27734375 9.09765625 C8.27734375 10.74765625 8.27734375 12.39765625 8.27734375 14.09765625 C5.96734375 14.09765625 3.65734375 14.09765625 1.27734375 14.09765625 C1.27734375 15.41765625 1.27734375 16.73765625 1.27734375 18.09765625 C4.24734375 18.09765625 7.21734375 18.09765625 10.27734375 18.09765625 C9.94734375 19.74765625 9.61734375 21.39765625 9.27734375 23.09765625 C4.98734375 23.09765625 0.69734375 23.09765625 -3.72265625 23.09765625 C-3.74948612 19.45177456 -3.76941194 15.80608779 -3.78515625 12.16015625 C-3.79353516 11.11923828 -3.80191406 10.07832031 -3.81054688 9.00585938 C-3.81538086 7.52182617 -3.81538086 7.52182617 -3.8203125 6.0078125 C-3.82554932 5.09136963 -3.83078613 4.17492676 -3.83618164 3.23071289 C-3.66394667 -0.0054526 -3.27378605 0.11742418 0 0 Z " fill="#636365" transform="translate(572.72265625,141.90234375)"/>
<path d="M0 0 C0.886875 0.05542969 1.77375 0.11085937 2.6875 0.16796875 C5 0.8125 5 0.8125 6.33984375 2.6015625 C7.07397454 5.06024905 7.00620389 6.48872744 6.5625 9 C5.87492812 13.81300318 6.31373797 18.00866577 7 22.8125 C5.35 22.4825 3.7 22.1525 2 21.8125 C1.67 19.5025 1.34 17.1925 1 14.8125 C0.01 14.8125 -0.98 14.8125 -2 14.8125 C-2.33 17.4525 -2.66 20.0925 -3 22.8125 C-4.32 22.8125 -5.64 22.8125 -7 22.8125 C-7 15.5525 -7 8.2925 -7 0.8125 C-4.44165689 -0.46667156 -2.83998712 -0.21877808 0 0 Z M-3 3.8125 C-3 5.7925 -3 7.7725 -3 9.8125 C-1.35 9.1525 0.3 8.4925 2 7.8125 C2 6.8225 2 5.8325 2 4.8125 C0.35 4.4825 -1.3 4.1525 -3 3.8125 Z " fill="#676769" transform="translate(513,142.1875)"/>
<path d="M0 0 C2.375 0.1875 2.375 0.1875 5 1 C7.16789459 4.61315766 7.19258541 7.85941364 7 12 C9.23339896 11.16745087 9.23339896 11.16745087 9.8515625 8.71484375 C10.10679687 7.79832031 10.36203125 6.88179687 10.625 5.9375 C10.88539063 5.01839844 11.14578125 4.09929687 11.4140625 3.15234375 C11.60742188 2.44207031 11.80078125 1.73179687 12 1 C13.65 0.67 15.3 0.34 17 0 C18.16514544 3.3907421 17.84338928 5.23119977 16.56640625 8.546875 C16.0878418 9.81337891 16.0878418 9.81337891 15.59960938 11.10546875 C15.25736328 11.97816406 14.91511719 12.85085937 14.5625 13.75 C14.05493164 15.08224609 14.05493164 15.08224609 13.53710938 16.44140625 C12.70109106 18.63153873 11.85514209 20.81727914 11 23 C9.35 23 7.7 23 6 23 C4.79764762 19.73443413 3.61572409 16.46184085 2.4375 13.1875 C2.09525391 12.25873047 1.75300781 11.32996094 1.40039062 10.37304688 C1.08134766 9.48037109 0.76230469 8.58769531 0.43359375 7.66796875 C0.13509521 6.84578857 -0.16340332 6.0236084 -0.47094727 5.17651367 C-1 3 -1 3 0 0 Z " fill="#616163" transform="translate(522,142)"/>
<path d="M0 0 C0.66 0.33 1.32 0.66 2 1 C2 2.65 2 4.3 2 6 C-0.31 5.67 -2.62 5.34 -5 5 C-5 6.32 -5 7.64 -5 9 C-3.8553125 9.1546875 -3.8553125 9.1546875 -2.6875 9.3125 C0.29740522 10.07608041 1.35674426 10.40538567 3 13 C3.5 16.4375 3.5 16.4375 3 20 C0.37586666 23.0100353 -1.15643074 23.89877169 -5.125 24.375 C-8 24 -8 24 -11 22 C-10.67 20.35 -10.34 18.7 -10 17 C-7.36 17.33 -4.72 17.66 -2 18 C-2.70444647 14.71817863 -2.70444647 14.71817863 -5.9375 13.5 C-6.948125 13.005 -7.95875 12.51 -9 12 C-11.1610211 8.75846834 -11.64247553 7.76307099 -11 4 C-7.5403028 0.2350354 -5.0393685 -0.55992983 0 0 Z " fill="#606061" transform="translate(521,107)"/>
<path d="M0 0 C0.66 0.33 1.32 0.66 2 1 C2 2.65 2 4.3 2 6 C-0.31 5.67 -2.62 5.34 -5 5 C-5 6.32 -5 7.64 -5 9 C-3.8553125 9.1546875 -3.8553125 9.1546875 -2.6875 9.3125 C0.29740522 10.07608041 1.35674426 10.40538567 3 13 C3.5 16.4375 3.5 16.4375 3 20 C0.37586666 23.0100353 -1.15643074 23.89877169 -5.125 24.375 C-8 24 -8 24 -11 22 C-10.67 20.35 -10.34 18.7 -10 17 C-7.36 17.33 -4.72 17.66 -2 18 C-2.70444647 14.71817863 -2.70444647 14.71817863 -5.9375 13.5 C-6.948125 13.005 -7.95875 12.51 -9 12 C-11 9 -11 9 -10.875 6 C-10 3 -10 3 -8.3125 1.125 C-5.36670091 -0.30809145 -3.23880681 -0.28163537 0 0 Z " fill="#5E5E60" transform="translate(406,107)"/>
<path d="M0 0 C1 1 1 1 1.0625 3.5625 C1.041875 4.366875 1.02125 5.17125 1 6 C-1.31 5.67 -3.62 5.34 -6 5 C-5.29555353 8.28182137 -5.29555353 8.28182137 -2.0625 9.5 C-1.051875 9.995 -0.04125 10.49 1 11 C3 14 3 14 2.9375 16.375 C1.62442353 20.05161412 0.16654572 21.70930735 -3 24 C-5.88801591 24.12300809 -8.13794479 23.63062233 -11 23 C-11 21.02 -11 19.04 -11 17 C-8.36 17.33 -5.72 17.66 -3 18 C-3.33 17.01 -3.66 16.02 -4 15 C-6.50447516 13.78130071 -6.50447516 13.78130071 -9 13 C-9 12.34 -9 11.68 -9 11 C-9.66 11 -10.32 11 -11 11 C-11.48396854 3.61947973 -11.48396854 3.61947973 -9.4375 1 C-6.17239929 -0.3395285 -3.49225533 -0.26356644 0 0 Z " fill="#616163" transform="translate(580,107)"/>
<path d="M0 0 C0.88751953 0.19529297 0.88751953 0.19529297 1.79296875 0.39453125 C1.46296875 2.04453125 1.13296875 3.69453125 0.79296875 5.39453125 C-1.84703125 5.06453125 -4.48703125 4.73453125 -7.20703125 4.39453125 C-5.23496498 6.58571599 -3.68706573 7.66980711 -1.01953125 9.08203125 C1.79296875 11.39453125 1.79296875 11.39453125 2.3203125 13.32421875 C2.46697491 16.52732589 2.23679902 18.80275756 0.29296875 21.39453125 C-3.37709166 22.86255541 -6.25794305 22.64931113 -10.20703125 22.39453125 C-10.86703125 22.06453125 -11.52703125 21.73453125 -12.20703125 21.39453125 C-12.20703125 20.07453125 -12.20703125 18.75453125 -12.20703125 17.39453125 C-9.23703125 17.39453125 -6.26703125 17.39453125 -3.20703125 17.39453125 C-3.94675061 14.01369518 -3.94675061 14.01369518 -7.70703125 12.58203125 C-10.61331253 11.00879634 -11.09495777 10.65790392 -12.45703125 7.45703125 C-12.20703125 4.39453125 -12.20703125 4.39453125 -10.33203125 1.45703125 C-6.41781691 -1.12635021 -4.47024477 -0.78028742 0 0 Z " fill="#626264" transform="translate(484.20703125,142.60546875)"/>
<path d="M0 0 C1 1 1 1 1.0625 3.5625 C1.041875 4.366875 1.02125 5.17125 1 6 C-0.093125 5.95875 -1.18625 5.9175 -2.3125 5.875 C-6.08892229 5.67925334 -6.08892229 5.67925334 -9 8 C-9.57748803 9.96361864 -9.57748803 9.96361864 -9.6875 12.125 C-9.8421875 14.043125 -9.8421875 14.043125 -10 16 C-9.34 16 -8.68 16 -8 16 C-8 16.66 -8 17.32 -8 18 C-5.03 18 -2.06 18 1 18 C1.33 19.65 1.66 21.3 2 23 C-2.83575454 23.98864315 -5.9247319 24.54740921 -10.4375 22.25 C-13.08334123 19.92682234 -14.79145352 18.27542636 -15.37109375 14.73046875 C-15.48830187 10.24208714 -15.56577717 7.01154187 -12.625 3.4375 C-8.28972536 -0.58811217 -5.73751064 -0.18214319 0 0 Z " fill="#606062" transform="translate(565,107)"/>
<path d="M0 0 C0.66 0.33 1.32 0.66 2 1 C2 2.32 2 3.64 2 5 C-2.455 5.495 -2.455 5.495 -7 6 C-8.83695434 10.33927969 -8.83695434 10.33927969 -8.125 14.875 C-7.75375 15.57625 -7.3825 16.2775 -7 17 C-4.03 17.33 -1.06 17.66 2 18 C1.67 19.65 1.34 21.3 1 23 C-8.78585462 23.57563851 -8.78585462 23.57563851 -13 20 C-15.52562544 15.79062426 -15.82960514 11.7951177 -15 7 C-11.47965226 0.47381688 -6.99978753 -0.25453773 0 0 Z " fill="#626264" transform="translate(302,142)"/>
<path d="M0 0 C0 1.32 0 2.64 0 4 C-0.95712891 4.09087891 -0.95712891 4.09087891 -1.93359375 4.18359375 C-2.75988281 4.26738281 -3.58617187 4.35117188 -4.4375 4.4375 C-5.67306641 4.55931641 -5.67306641 4.55931641 -6.93359375 4.68359375 C-8.98662025 4.78930815 -8.98662025 4.78930815 -10 6 C-10.0979057 7.49738124 -10.12974864 8.99942892 -10.125 10.5 C-10.12757813 11.3146875 -10.13015625 12.129375 -10.1328125 12.96875 C-10.2245178 14.99530377 -10.2245178 14.99530377 -9 16 C-7.48530552 16.23192865 -5.96245438 16.41215238 -4.4375 16.5625 C-3.61121094 16.64628906 -2.78492188 16.73007813 -1.93359375 16.81640625 C-0.97646484 16.90728516 -0.97646484 16.90728516 0 17 C-0.33 18.65 -0.66 20.3 -1 22 C-5.76761753 22.47676175 -9.63232515 22.83824 -13.5 19.6875 C-16.43092306 16.53675771 -16.91246868 14.92783194 -17.3125 10.6875 C-16.94050629 6.2979742 -15.80652364 4.35223657 -13 1 C-9.33500851 -1.78033837 -4.09991034 -2.04995517 0 0 Z " fill="#656566" transform="translate(566,143)"/>
<path d="M0 0 C5.28 0 10.56 0 16 0 C16 1.65 16 3.3 16 5 C14.35 5 12.7 5 11 5 C11 10.61 11 16.22 11 22 C9.35 22.33 7.7 22.66 6 23 C5 22 5 22 4.90234375 18.18359375 C4.90901911 16.60153318 4.92098125 15.01948841 4.9375 13.4375 C4.94201172 12.63119141 4.94652344 11.82488281 4.95117188 10.99414062 C4.96299482 8.99606244 4.98093086 6.99802217 5 5 C3.35 5 1.7 5 0 5 C0 3.35 0 1.7 0 0 Z " fill="#5D5D5E" transform="translate(428,142)"/>
<path d="M0 0 C5.28 0 10.56 0 16 0 C16.33 1.65 16.66 3.3 17 5 C14.69 5 12.38 5 10 5 C10 10.94 10 16.88 10 23 C8.68 23 7.36 23 6 23 C5 22 5 22 4.90234375 18.18359375 C4.90901911 16.60153318 4.92098125 15.01948841 4.9375 13.4375 C4.94201172 12.63119141 4.94652344 11.82488281 4.95117188 10.99414062 C4.96299482 8.99606244 4.98093086 6.99802217 5 5 C3.02 5 1.04 5 -1 5 C-0.67 3.35 -0.34 1.7 0 0 Z " fill="#5B5B5F" transform="translate(525,107)"/>
<path d="M0 0 C2.375 0.3125 2.375 0.3125 5 1 C7 4 7 4 7 7 C7.66 7 8.32 7 9 7 C9.66 5.02 10.32 3.04 11 1 C12.98 0.67 14.96 0.34 17 0 C16.43820424 3.65167245 15.47762531 6.14558818 13.5 9.25 C10.78522039 13.90502556 10.25472657 17.65074211 10 23 C8.68 23 7.36 23 6 23 C5.99742187 22.39414063 5.99484375 21.78828125 5.9921875 21.1640625 C5.68841758 14.58238089 3.93597492 10.52099626 0.1796875 5.12890625 C-0.20960938 4.42636719 -0.59890625 3.72382813 -1 3 C-0.67 2.01 -0.34 1.02 0 0 Z " fill="#626264" transform="translate(446,142)"/>
<path d="M0 0 C1.98 0.495 1.98 0.495 4 1 C4 6.61 4 12.22 4 18 C6.64 18 9.28 18 12 18 C12.042721 19.66611905 12.04063832 21.33382885 12 23 C11 24 11 24 8.53125 24.1328125 C7.03078125 24.12894531 7.03078125 24.12894531 5.5 24.125 C4.4996875 24.12757813 3.499375 24.13015625 2.46875 24.1328125 C0 24 0 24 -1 23 C-1.0991657 21.37742456 -1.13079777 19.75060169 -1.1328125 18.125 C-1.13410156 17.14015625 -1.13539063 16.1553125 -1.13671875 15.140625 C-1.13285156 14.10421875 -1.12898438 13.0678125 -1.125 12 C-1.13080078 10.44539063 -1.13080078 10.44539063 -1.13671875 8.859375 C-1.13542969 7.87453125 -1.13414062 6.8896875 -1.1328125 5.875 C-1.13168457 4.96492188 -1.13055664 4.05484375 -1.12939453 3.1171875 C-1 1 -1 1 0 0 Z " fill="#535355" transform="translate(448,107)"/>
<path d="M0 0 C1.65 0 3.3 0 5 0 C5 7.59 5 15.18 5 23 C3.68 23 2.36 23 1 23 C0 22 0 22 -0.11352539 19.86694336 C-0.10828857 18.95050049 -0.10305176 18.03405762 -0.09765625 17.08984375 C-0.09443359 16.10048828 -0.09121094 15.11113281 -0.08789062 14.09179688 C-0.07951172 13.05087891 -0.07113281 12.00996094 -0.0625 10.9375 C-0.05798828 9.89271484 -0.05347656 8.84792969 -0.04882812 7.77148438 C-0.03699913 5.1809334 -0.02051689 2.59049441 0 0 Z " fill="#515153" transform="translate(502,107)"/>
<path d="M0 0 C1.32 0 2.64 0 4 0 C4 7.59 4 15.18 4 23 C2.35 22.67 0.7 22.34 -1 22 C-1.02887814 18.52085059 -1.04675687 15.04173169 -1.0625 11.5625 C-1.07087891 10.56927734 -1.07925781 9.57605469 -1.08789062 8.55273438 C-1.09111328 7.60849609 -1.09433594 6.66425781 -1.09765625 5.69140625 C-1.10289307 4.81685791 -1.10812988 3.94230957 -1.11352539 3.04125977 C-1 1 -1 1 0 0 Z " fill="#656566" transform="translate(542,142)"/>
<path d="M0 0 C1.98 0.495 1.98 0.495 4 1 C4 8.26 4 15.52 4 23 C2.35 23 0.7 23 -1 23 C-1.02887512 19.35418313 -1.04675585 15.70839537 -1.0625 12.0625 C-1.07087891 11.02158203 -1.07925781 9.98066406 -1.08789062 8.90820312 C-1.09272461 7.42416992 -1.09272461 7.42416992 -1.09765625 5.91015625 C-1.10289307 4.99371338 -1.10812988 4.07727051 -1.11352539 3.13305664 C-1 1 -1 1 0 0 Z " fill="#626265" transform="translate(422,142)"/>
<path d="M0 0 C1.32 0 2.64 0 4 0 C5.76078179 3.52156358 5.184646 7.55891951 5.1875 11.4375 C5.19974609 12.30955078 5.21199219 13.18160156 5.22460938 14.08007812 C5.22654297 14.91861328 5.22847656 15.75714844 5.23046875 16.62109375 C5.23457764 17.3886499 5.23868652 18.15620605 5.24291992 18.94702148 C5 21 5 21 3 24 C2.01 23.67 1.02 23.34 0 23 C0 15.41 0 7.82 0 0 Z " fill="#535354" transform="translate(289,107)"/>
<path d="M0 0 C1.65 0 3.3 0 5 0 C5 7.59 5 15.18 5 23 C3.68 23 2.36 23 1 23 C0.67 15.41 0.34 7.82 0 0 Z " fill="#626264" transform="translate(542,107)"/>
<path d="M0 0 C1.32 0 2.64 0 4 0 C4 7.59 4 15.18 4 23 C2.68 23 1.36 23 0 23 C0 15.41 0 7.82 0 0 Z " fill="#646466" transform="translate(412,107)"/>
<path d="M0 0 C2.97 0 5.94 0 9 0 C9 3.96 9 7.92 9 12 C6.36 12 3.72 12 1 12 C1.57584432 9.61435923 2.22227595 7.33317216 3 5 C2.01 4.67 1.02 4.34 0 4 C0 2.68 0 1.36 0 0 Z " fill="#646466" transform="translate(491,117)"/>
<path d="M0 0 C0.33 0 0.66 0 1 0 C0.96519531 1.41539063 0.96519531 1.41539063 0.9296875 2.859375 C0.81320401 11.14634301 1.29944529 18.84644749 3 27 C2.01 27 1.02 27 0 27 C-3.26845713 22.09731431 -4.27944109 17.86826297 -4 12 C-3.34 12 -2.68 12 -2 12 C-2.33 10.02 -2.66 8.04 -3 6 C-2.34 6 -1.68 6 -1 6 C-0.67 4.02 -0.34 2.04 0 0 Z " fill="#1A8AC1" transform="translate(50,105)"/>
<path d="M0 0 C0.66 0.33 1.32 0.66 2 1 C1.7082593 4.40364149 0.95421125 6.06382675 -1.0625 8.875 C-4.23653016 11.17110692 -4.66801238 11.27129188 -8.3125 10.8125 C-9.529375 10.544375 -10.74625 10.27625 -12 10 C-12 8.02 -12 6.04 -12 4 C-9.03 4.33 -6.06 4.66 -3 5 C-2.01 3.35 -1.02 1.7 0 0 Z " fill="#565657" transform="translate(581,120)"/>
<path d="M0 0 C1.875 0.3125 1.875 0.3125 4 1 C6 4 6 4 6 7 C5.34 7 4.68 7 4 7 C4.16371094 7.52078125 4.32742187 8.0415625 4.49609375 8.578125 C5.14058659 11.6756875 5.09411589 14.58841094 5.0625 17.75 C5.05347656 18.92046875 5.04445313 20.0909375 5.03515625 21.296875 C5.02355469 22.18890625 5.01195312 23.0809375 5 24 C4.67 24 4.34 24 4 24 C3.96261719 23.23816406 3.92523438 22.47632812 3.88671875 21.69140625 C3.50503741 15.69676398 2.80467973 10.45030152 0.62109375 4.83984375 C0 3 0 3 0 0 Z " fill="#CF781E" transform="translate(52,104)"/>
<path d="M0 0 C0.99 0.33 1.98 0.66 3 1 C3 5.29 3 9.58 3 14 C2.34 14 1.68 14 1 14 C-0.75328507 10.97159851 -1.25093193 8.80125633 -1.1875 5.3125 C-1.18105469 4.52488281 -1.17460937 3.73726563 -1.16796875 2.92578125 C-1 1 -1 1 0 0 Z " fill="#6C6C6D" transform="translate(373,110)"/>
<path d="M0 0 C1.98 0.99 1.98 0.99 4 2 C4.75 4.625 4.75 4.625 5 7 C4.01 7 3.02 7 2 7 C2 11.95 2 16.9 2 22 C1.34 22 0.68 22 0 22 C0 14.74 0 7.48 0 0 Z " fill="#F19725" transform="translate(56,111)"/>
<path d="M0 0 C0.33 0 0.66 0 1 0 C0.67 4.95 0.34 9.9 0 15 C-1.32 15.33 -2.64 15.66 -4 16 C-4 14.68 -4 13.36 -4 12 C-3.34 12 -2.68 12 -2 12 C-2.33 10.02 -2.66 8.04 -3 6 C-2.34 6 -1.68 6 -1 6 C-0.67 4.02 -0.34 2.04 0 0 Z " fill="#239BD6" transform="translate(50,105)"/>
<path d="M0 0 C0.33 0 0.66 0 1 0 C0.88557539 1.60495567 0.75805306 3.20898119 0.625 4.8125 C0.55539063 5.70582031 0.48578125 6.59914062 0.4140625 7.51953125 C0 10 0 10 -2 13 C-2.66 13 -3.32 13 -4 13 C-4 11.02 -4 9.04 -4 7 C-3.34 7 -2.68 7 -2 7 C-2 5.35 -2 3.7 -2 2 C-1.34 2 -0.68 2 0 2 C0 1.34 0 0.68 0 0 Z " fill="#EEAB18" transform="translate(65,147)"/>
<path d="M0 0 C1.98 0.495 1.98 0.495 4 1 C4 7.93 4 14.86 4 22 C3.67 22 3.34 22 3 22 C2.67 16.06 2.34 10.12 2 4 C1.01 4 0.02 4 -1 4 C-0.67 2.68 -0.34 1.36 0 0 Z " fill="#575758" transform="translate(373,107)"/>
<path d="M0 0 C0.33 1.32 0.66 2.64 1 4 C-1.97 3.67 -4.94 3.34 -8 3 C-8 4.98 -8 6.96 -8 9 C-8.33 9 -8.66 9 -9 9 C-9.04241723 6.66705225 -9.04092937 4.33297433 -9 2 C-6.95301586 -0.04698414 -2.69588759 0.29954307 0 0 Z " fill="#6E6E70" transform="translate(500,142)"/>
<path d="M0 0 C2.05078125 0.03255208 4.1015625 0.06510417 6.15234375 0.09765625 C6.15234375 1.41765625 6.15234375 2.73765625 6.15234375 4.09765625 C2.77734375 4.28515625 2.77734375 4.28515625 -0.84765625 4.09765625 C-1.50765625 3.10765625 -2.16765625 2.11765625 -2.84765625 1.09765625 C-1.84765625 0.09765625 -1.84765625 0.09765625 0 0 Z " fill="#6A6A6C" transform="translate(386.84765625,115.90234375)"/>
<path d="M0 0 C0.99 0 1.98 0 3 0 C2.67 4.62 2.34 9.24 2 14 C1.34 13.67 0.68 13.34 0 13 C0 8.71 0 4.42 0 0 Z " fill="#6E6E70" transform="translate(413,143)"/>
<path d="M0 0 C2.97 0 5.94 0 9 0 C8.67 0.99 8.34 1.98 8 3 C5.36 2.67 2.72 2.34 0 2 C0 1.34 0 0.68 0 0 Z " fill="#6E6E70" transform="translate(572,143)"/>
<path d="M0 0 C3.96 0 7.92 0 12 0 C12.33 1.32 12.66 2.64 13 4 C12.01 4.33 11.02 4.66 10 5 C10.33 3.68 10.66 2.36 11 1 C7.37 1 3.74 1 0 1 C0 0.67 0 0.34 0 0 Z " fill="#464648" transform="translate(570,142)"/>
</svg>
